<svg xmlns="http://www.w3.org/2000/svg" xmlns:xlink="http://www.w3.org/1999/xlink" width="30" height="30" viewBox="0 0 512 512" xml:space="preserve">
    <g transform="matrix(1 -0.05 0.05 1 244.63 270.79)" id="dTf1Bgi6mLT7U24RUHYKe"  >
    <path style="stroke: currentColor; stroke-width: 32; stroke-dasharray: none; stroke-linecap: butt; stroke-dashoffset: 0; stroke-linejoin: miter; stroke-miterlimit: 10; fill: none; fill-rule: nonzero; opacity: 1;" transform=" translate(-170.56, -170.57)" d="M 330.46472 267.31044 C 317.44312 254.19044000000002 285.90592 235.04344000000003 270.60472 227.32724000000002 C 250.67872 217.29044000000002 249.03871999999998 216.47044000000002 233.37671999999998 228.10624 C 222.92991999999998 235.87164 215.98451999999997 242.80884 203.75831999999997 240.20124 C 191.53211999999996 237.59364000000002 164.96411999999998 222.89104 141.70071999999996 199.70144000000002 C 118.43731999999996 176.51184 102.88191999999995 149.17303 100.26611999999996 136.98783000000003 C 97.65031999999997 124.80263000000004 104.70231999999996 117.93923000000004 112.39391999999995 107.46783000000003 C 123.23431999999995 92.70783000000003 122.41431999999995 90.24783000000004 113.14831999999996 70.32183000000003 C 105.92411999999996 54.82383000000004 86.21951999999996 23.581820000000036 73.05031999999996 10.625820000000033 C 58.962719999999955 -3.289579999999967 58.962719999999955 -0.8295799999999662 49.88531999999996 2.942420000000033 C 42.49523999999996 6.051770000000033 35.40542999999996 9.831350000000032 28.70471999999996 14.233820000000033 C 15.58471999999996 22.950420000000033 8.30311999999996 30.191020000000034 3.210919999999959 41.07242000000004 C -1.8812800000000411 51.953820000000036 -4.169080000000041 77.46402000000003 22.12831999999996 125.23723000000004 C 48.425719999999956 173.01044000000005 66.87571999999996 197.43824000000004 105.06312999999996 235.51904000000002 C 143.25052999999997 273.59984000000003 172.61472999999995 294.07525000000004 215.54173999999995 318.15045000000003 C 268.64493999999996 347.89185000000003 289.0137399999999 342.09445000000005 299.92794999999995 337.01045000000005 C 310.84214999999995 331.92645000000005 318.1155499999999 324.71045000000004 326.84854999999993 311.59045000000003 C 331.26239999999996 304.90102 335.0504199999999 297.81907 338.1645499999999 290.43445 C 341.9447499999999 281.38985 344.4047499999999 281.38985 330.4647499999999 267.31045 z" stroke-linecap="round" />
    </g>
    <g transform="matrix(1.79 2.56 -2.41 1.68 221.08 99.87)" id="SdmBxfpJHT7NnYrqW_Bdl"  >
    <path style="stroke: none; stroke-width: 0; stroke-dasharray: none; stroke-linecap: butt; stroke-dashoffset: 0; stroke-linejoin: miter; stroke-miterlimit: 4; fill: currentColor; fill-rule: nonzero; opacity: 1;" transform=" translate(0, 0)" d="M 0 -5.27175 C 6.3 -5.27175 12.2 -2.87175 16.6 1.6282500000000004 L 13.200000000000001 5.02825 C 9.700000000000001 1.5282499999999999 5.000000000000002 -0.4717500000000001 1.7763568394002505e-15 -0.4717500000000001 C -4.999999999999998 -0.4717500000000001 -9.802399999999999 1.6717399999999998 -13.302399999999999 5.27174 L -16.599999999999998 1.6282500000000004 C -12.199999999999998 -2.77175 -6.299999999999997 -5.27175 3.552713678800501e-15 -5.27175 z" stroke-linecap="round" />
    </g>
    <g transform="matrix(1.82 2.6 -2.45 1.71 245.73 82.5)" id="sVLwSaBR0kEInmu1CSaWv"  >
    <path style="stroke: none; stroke-width: 1; stroke-dasharray: none; stroke-linecap: butt; stroke-dashoffset: 0; stroke-linejoin: miter; stroke-miterlimit: 4; fill: currentColor; fill-rule: nonzero; opacity: 1;" transform=" translate(-40, -34.3)" d="M 40 26.8 C 50.6 26.8 60.6 30.9 68.1 38.4 L 64.69999999999999 41.8 C 58.1 35.3 49.3 31.6 40 31.6 C 30.700000000000003 31.6 21.9 35.2 15.3 41.8 L 11.9 38.4 C 19.4 30.9 29.4 26.8 40 26.8 z" stroke-linecap="round" />
    </g>
</svg>